# xmcd
#
# Track frame offsets:
#	150
#	16831
#	29715
#	45490
#	61605
#	77626
#	93364
#	108893
#	128460
#	143217
#
# Disc length: 2121 seconds
#
# Revision: 1
# Processed by: cddbd v1.5.1PL2 Copyright (c) Steve Scherf et al.
# Submitted via: EasyCDDAExtractor 6.5.9.5
#
DISCID=7008470a
DTITLE=Sylvia - Snapshot
DYEAR=1983
DGENRE=Country
TTITLE0=Snapshot
TTITLE1=Tonight I'm Gettin' Friendly With The Blues
TTITLE2=Winter Heart
TTITLE3=Bobby's In Vicksburg
TTITLE4=Gone But Not Forgotten
TTITLE5=The Boy Gets Around
TTITLE6=Who's Kidding Who
TTITLE7=Jason
TTITLE8=So Complete
TTITLE9=I Never Quite Got Back (From Loving You)
EXTD=
EXTT0=
EXTT1=
EXTT2=
EXTT3=
EXTT4=
EXTT5=
EXTT6=
EXTT7=
EXTT8=
EXTT9=
PLAYORDER=
